<?xml version="1.0" encoding="UTF-8"?>
<svg id="Capa_2" data-name="Capa 2" xmlns="http://www.w3.org/2000/svg" viewBox="0 0 6.86 73.01">
  <defs>
    <style>
      .cls-1 {
        fill: #5b5b5f;
        fill-rule: evenodd;
      }
    </style>
  </defs>
  <g id="Capa_1-2" data-name="Capa 1">
    <g>
      <path class="cls-1" d="M3.57,50.04c.26,0,.46-.07.6-.21.15-.13.22-.31.22-.51s-.07-.39-.22-.52c-.15-.14-.35-.21-.63-.21-.17,0-.32.03-.45.09-.13.06-.23.14-.3.26-.07.11-.11.24-.11.37,0,.2.07.37.2.52.14.14.36.21.69.21M3.56,50.33c-.35,0-.62-.1-.83-.28-.2-.19-.3-.44-.3-.73,0-.2.04-.37.14-.53.09-.16.22-.28.39-.37.17-.08.36-.12.57-.12s.41.05.57.13c.17.09.3.21.39.36.08.16.13.33.13.52s-.05.38-.15.54c-.09.15-.22.27-.4.36-.17.08-.34.12-.53.12M4.35,53.45v-.45c0-.13-.01-.25-.04-.33-.02-.08-.06-.14-.11-.19-.07-.06-.16-.11-.27-.15-.11-.04-.25-.06-.41-.06-.22,0-.39.04-.51.11-.12.07-.2.16-.24.26-.03.08-.04.21-.04.37v.44h1.62ZM4.6,53.73h-2.13v-.74c0-.16.01-.28.03-.37.03-.12.08-.23.16-.32.1-.11.21-.2.36-.25.15-.06.32-.08.5-.08.17,0,.31.02.43.06.12.03.22.08.31.14.08.06.15.12.19.19.05.07.08.16.11.26.02.09.04.21.04.34v.76ZM3.72,56.68v-.72l-.59.23c-.18.07-.32.11-.44.15.13.03.27.06.4.11l.62.23ZM4.6,57.3l-2.13-.81v-.31l2.13-.86v.32l-.64.25v.89l.64.23v.3ZM4.6,60.07h-2.13v-.27h1.88v-1.05h.25v1.32ZM4.6,62.19h-2.13v-.28h2.13v.28ZM3.76,64.9h-.25v-.9h.79c.11.13.2.28.25.43.06.14.08.29.08.45,0,.21-.04.4-.13.57-.09.17-.22.3-.39.38-.17.09-.36.13-.56.13s-.4-.05-.58-.13c-.18-.09-.31-.21-.4-.37-.08-.17-.13-.35-.13-.56,0-.15.02-.29.07-.41.05-.12.12-.23.21-.3.08-.06.2-.12.35-.15l.06.25c-.1.03-.19.08-.25.12-.06.05-.11.11-.15.2-.04.09-.06.18-.06.29,0,.13.02.24.06.34.04.08.09.16.15.22.06.06.13.1.21.13.13.05.27.08.43.08.19,0,.35-.03.47-.1.13-.06.23-.16.29-.28.06-.13.09-.26.09-.4,0-.12-.02-.23-.07-.35-.05-.12-.09-.2-.15-.26h-.4v.62ZM4.6,68.02h-2.13v-.28h2.13v.28ZM4.6,70.79l-2.13.82v-.31l1.54-.55c.13-.04.24-.08.35-.11-.11-.03-.23-.07-.35-.12l-1.54-.57v-.28l2.13.83v.3Z"/>
      <path class="cls-1" d="M2.19,1.27v-.66l-.55.21c-.16.06-.3.11-.41.14.12.02.25.06.37.1l.58.22ZM2.99,1.84l-1.97-.76v-.28l1.97-.8v.3l-.59.23v.82l.59.22v.28ZM1.9,3.34v-.56c0-.12-.01-.22-.04-.28-.02-.07-.06-.12-.12-.15-.05-.04-.11-.06-.17-.06-.09,0-.17.03-.23.1-.06.06-.09.17-.09.32v.62h.65ZM2.99,3.6h-1.97v-.86c0-.18.02-.31.06-.4.03-.09.09-.17.18-.22.09-.05.19-.08.3-.08.13,0,.26.05.35.13.1.1.16.23.19.42.03-.07.06-.12.09-.16.07-.07.16-.15.26-.22l.53-.34v.33l-.41.26c-.12.07-.21.13-.27.18-.06.06-.11.1-.13.14-.02.03-.04.08-.05.12,0,.03,0,.08,0,.15v.3h.87v.26ZM2.99,5.43h-1.97v-1.42h.23v1.16h.6v-1.09h.23v1.09h.67v-1.21h.23v1.46ZM2.99,6.15h-1.97v-.26h1.97v.26ZM2.3,6.78l.07-.26c.22.06.38.15.49.29.11.15.17.32.17.52s-.04.39-.13.51c-.09.14-.21.23-.37.3-.16.07-.34.11-.53.11-.2,0-.39-.03-.54-.11-.15-.08-.27-.2-.35-.33-.08-.15-.12-.31-.12-.48,0-.2.05-.37.15-.49.1-.14.24-.23.42-.28l.06.25c-.14.04-.25.11-.31.2-.07.08-.1.2-.1.33,0,.15.03.28.11.38.07.1.18.16.3.21.12.04.24.06.37.06.17,0,.31-.02.44-.07.12-.05.22-.12.28-.22.06-.1.09-.22.09-.34,0-.14-.04-.27-.13-.37-.09-.1-.21-.18-.38-.21M2.99,10.17h-1.97v-.26l1.54-1.03h-1.54v-.25h1.97v.26l-1.54,1.03h1.54v.25ZM2.19,11.64v-.66l-.55.21c-.16.06-.3.1-.41.14.12.02.25.06.37.1l.58.21ZM2.99,12.21l-1.97-.75v-.28l1.97-.8v.3l-.59.23v.81l.59.22v.28ZM2.99,13.98h-1.97v-.27l1.54-1.03h-1.54v-.25h1.97v.27l-1.54,1.03h1.54v.25ZM2.99,14.69h-1.97v-.26h1.97v.26ZM2.99,16.4h-1.97v-1.32h.23v1.07h.61v-.93h.23v.93h.89v.26ZM2.19,18.66v-.67l-.55.21c-.16.05-.3.11-.41.14.12.02.25.06.37.11l.58.21ZM2.99,19.23l-1.97-.75v-.28l1.97-.8v.3l-.59.23v.82l.59.22v.27ZM2.99,19.73h-1.97v-.26h1.97v.26ZM2.3,20.35l.07-.26c.22.06.38.15.49.3.11.13.17.31.17.52s-.04.38-.13.51c-.09.13-.21.23-.37.3-.16.07-.34.1-.53.1-.2,0-.39-.03-.54-.11-.15-.08-.27-.19-.35-.33-.08-.15-.12-.31-.12-.48,0-.19.05-.36.15-.5.1-.13.24-.23.42-.28l.06.26c-.14.05-.25.11-.31.2-.07.09-.1.19-.1.33,0,.15.03.27.11.38.07.1.18.17.3.21.12.05.24.07.37.07.17,0,.31-.02.44-.07.12-.05.22-.12.28-.23.06-.1.09-.21.09-.33,0-.14-.04-.27-.13-.37-.09-.1-.21-.17-.38-.21M2.99,23.74h-1.97v-.27l1.54-1.03h-1.54v-.25h1.97v.26l-1.54,1.03h1.54v.25ZM2.99,25.56h-1.97v-1.42h.23v1.16h.6v-1.09h.23v1.09h.67v-1.21h.23v1.47ZM2.76,27.29v-.42c0-.13-.01-.23-.04-.3-.02-.07-.06-.13-.1-.18-.06-.07-.15-.12-.25-.14-.11-.04-.23-.05-.38-.05-.2,0-.36.03-.47.1-.11.07-.18.15-.22.25-.03.06-.04.18-.04.34v.41h1.5ZM2.99,27.55h-1.97v-.68c0-.15.01-.27.03-.35.03-.12.07-.21.14-.29.09-.1.2-.18.34-.23.14-.06.29-.08.47-.08.15,0,.28.03.4.05.11.04.21.08.28.14.08.06.14.11.18.18.04.06.07.14.1.23.02.09.03.2.03.31v.71ZM2.99,29.54h-1.97v-.27l1.54-1.03h-1.54v-.25h1.97v.27l-1.54,1.03h1.54v.25ZM2.99,31.36h-1.97v-1.42h.23v1.16h.6v-1.09h.23v1.09h.67v-1.21h.23v1.47ZM2.99,32.55h-1.73v.65h-.23v-1.56h.23v.65h1.73v.26ZM2.99,35.03h-1.97v-.27l1.54-1.03h-1.54v-.25h1.97v.27l-1.54,1.03h1.54v.25ZM2.99,35.74h-1.97v-.26h1.97v.26ZM1.9,37.51v-.56c0-.12-.01-.21-.04-.28-.02-.07-.06-.11-.12-.15-.05-.03-.11-.05-.17-.05-.09,0-.17.03-.23.1-.06.07-.09.17-.09.32v.62h.65ZM2.99,37.77h-1.97v-.88c0-.18.02-.31.06-.4.03-.09.09-.16.18-.22.09-.05.19-.08.3-.08.13,0,.26.04.35.14.1.08.16.23.19.42.03-.07.06-.12.09-.16.07-.07.16-.15.26-.21l.53-.34v.33l-.41.26c-.12.08-.21.15-.27.19-.06.05-.11.09-.13.13-.02.03-.04.07-.05.12,0,.03,0,.08,0,.15v.3h.87v.26ZM2.99,39.6h-1.97v-1.42h.23v1.16h.6v-1.08h.23v1.08h.67v-1.21h.23v1.47ZM1.96,41.17v-.5c0-.17-.03-.29-.09-.36-.07-.07-.15-.11-.27-.11-.08,0-.16.02-.21.06-.06.05-.1.1-.12.17-.01.04-.02.12-.02.24v.5h.7ZM2.99,41.44h-1.97v-.75c0-.13.01-.22.02-.3.02-.09.05-.18.1-.24.04-.07.11-.12.18-.16.08-.04.17-.06.27-.06.16,0,.31.05.42.15.12.11.17.3.17.58v.5h.8v.27ZM1.02,42.13v-.25h1.14c.19,0,.35.02.47.06.12.04.21.13.28.25.07.12.11.27.11.46s-.03.33-.09.45c-.07.12-.16.2-.28.26-.12.05-.28.07-.49.07h-1.14v-.25h1.14c.17,0,.29-.02.37-.05.08-.03.14-.09.18-.17.04-.08.07-.17.07-.28,0-.19-.04-.33-.13-.41-.09-.08-.26-.13-.5-.13h-1.14ZM2.36,45.34l-.02-.25c.1-.02.18-.04.25-.08.06-.04.11-.11.15-.2.04-.09.06-.2.06-.3,0-.1-.01-.19-.04-.26-.03-.08-.07-.13-.12-.17-.05-.04-.11-.06-.17-.06s-.12.02-.16.06c-.05.04-.09.09-.12.17-.02.06-.05.17-.09.35-.05.18-.09.31-.13.38-.05.09-.11.16-.18.21-.07.05-.16.07-.25.07-.1,0-.19-.03-.27-.09-.09-.05-.15-.13-.2-.24-.04-.11-.07-.23-.07-.37,0-.14.02-.27.07-.38.04-.11.12-.2.21-.26.09-.07.19-.09.31-.09l.02.25c-.12,0-.21.06-.28.13-.06.08-.09.2-.09.34,0,.16.03.27.08.35.06.07.13.11.21.11.07,0,.13-.02.17-.08.04-.05.09-.18.15-.4.04-.2.08-.35.12-.43.06-.12.12-.2.2-.26.08-.05.18-.08.28-.08s.2.03.3.09c.1.06.16.15.22.26.05.12.07.24.07.38,0,.17-.03.32-.08.45-.05.12-.13.21-.23.28-.11.06-.23.1-.36.11M5.16,14.46v-.66l-.55.21c-.16.06-.3.1-.4.14.12.02.25.06.37.11l.58.21ZM5.97,15.03l-1.97-.75v-.28l1.97-.8v.3l-.6.23v.82l.6.22v.28ZM5.97,15.53h-1.97v-.26h1.97v.26ZM5.73,17.16v-.49c0-.08,0-.14,0-.17-.01-.06-.03-.11-.05-.15-.03-.04-.07-.07-.12-.1-.04-.03-.1-.04-.17-.04-.07,0-.14.02-.18.06-.06.03-.09.08-.12.15-.02.07-.03.16-.03.29v.45h.67ZM4.83,17.16v-.43c0-.12-.01-.2-.02-.24-.02-.07-.05-.12-.1-.15-.04-.04-.11-.06-.17-.06-.07,0-.12.01-.17.05-.05.03-.08.07-.1.13-.02.06-.03.15-.03.3v.39h.59ZM5.97,17.42h-1.97v-.74c0-.14.02-.26.06-.36.04-.09.1-.15.18-.21.08-.05.17-.08.26-.08.08,0,.16.02.23.07.08.05.14.12.18.21.04-.11.1-.22.18-.27.08-.07.18-.1.29-.1.09,0,.18.02.26.06.08.04.14.09.18.15.05.05.08.13.1.21.02.09.03.19.03.31v.75ZM5.97,19.71h-1.97v-.39l1.39-.46.29-.09c-.07-.02-.18-.06-.31-.11l-1.37-.47v-.35h1.97v.25h-1.65l1.65.57v.23l-1.67.57h1.67v.25ZM5.01,21.64c.24,0,.42-.07.56-.2.14-.12.2-.28.2-.47,0-.2-.07-.36-.2-.49-.14-.13-.33-.2-.59-.2-.16,0-.3.03-.42.08-.12.06-.21.14-.28.24-.06.11-.09.22-.09.36,0,.17.06.34.19.47.13.13.34.2.63.2M5.01,21.91c-.33,0-.58-.08-.76-.26-.18-.17-.28-.4-.28-.67,0-.19.04-.36.13-.5.08-.14.2-.26.36-.33.15-.08.33-.11.53-.11s.38.03.53.12c.16.08.28.19.36.34.08.15.11.31.11.48s-.04.35-.13.49c-.09.15-.21.26-.36.33-.16.08-.32.11-.49.11M5.97,23.37h-1.97v-.26h1.74v-.97h.23v1.22ZM5.01,25.3c.24,0,.42-.06.56-.19.14-.13.2-.29.2-.48s-.07-.36-.2-.48c-.14-.13-.33-.19-.59-.19-.16,0-.3.03-.42.08-.12.05-.21.13-.28.24-.06.1-.09.22-.09.35,0,.18.06.33.19.47.13.13.34.2.63.2M5.01,25.58c-.33,0-.58-.09-.76-.26-.18-.18-.28-.4-.28-.68,0-.19.04-.35.13-.49.08-.15.2-.25.36-.33.15-.07.33-.12.53-.12s.38.04.53.12c.16.08.28.2.36.35.08.15.11.31.11.47,0,.19-.04.35-.13.5-.09.14-.21.26-.36.33-.16.07-.32.11-.49.11M5.28,26.08l.06-.26c.21.06.38.16.49.29.12.15.16.32.16.52s-.03.37-.12.51c-.09.13-.22.23-.38.3-.16.07-.34.1-.53.1-.21,0-.38-.04-.54-.11-.15-.08-.27-.19-.35-.33-.08-.14-.12-.3-.12-.48,0-.2.05-.36.15-.5.1-.13.24-.22.42-.27l.06.25c-.14.05-.25.11-.31.2-.06.09-.09.2-.09.33,0,.15.03.28.11.37.08.1.17.18.29.22.12.04.25.06.38.06.17,0,.31-.03.44-.07.12-.05.21-.13.27-.23.07-.1.09-.22.09-.33,0-.15-.04-.27-.13-.38-.08-.1-.2-.17-.37-.2M5.97,30.07h-1.97v-1.43h.23v1.16h.6v-1.08h.23v1.08h.66v-1.21h.23v1.47ZM5.73,31.79v-.42c0-.13-.01-.23-.04-.3-.02-.07-.06-.14-.1-.18-.07-.06-.15-.11-.25-.14-.1-.04-.23-.05-.38-.05-.21,0-.36.03-.47.11-.11.06-.18.15-.22.25-.03.07-.04.18-.04.33v.41h1.5ZM5.97,32.05h-1.97v-.68c0-.15.01-.27.03-.35.03-.12.07-.22.14-.29.09-.11.21-.18.34-.24.13-.05.29-.08.47-.08.15,0,.28.02.4.06.11.03.21.07.29.13.08.06.13.12.18.19.04.06.08.14.1.23.02.09.03.2.03.31v.71Z"/>
      <path class="cls-1" d="M6.03,46.9h.83v26.11h-.83v-26.11ZM0,46.9h.83v26.11h-.83v-26.11Z"/>
    </g>
  </g>
</svg>