<?xml version="1.0" encoding="iso-8859-1"?>
<!-- Generator: Adobe Illustrator 19.0.0, SVG Export Plug-In . SVG Version: 6.00 Build 0)  -->
<svg version="1.1" id="Layer_1" xmlns="http://www.w3.org/2000/svg" xmlns:xlink="http://www.w3.org/1999/xlink" x="0px" y="0px"
	 viewBox="0 0 511.999 511.999" style="enable-background:new 0 0 511.999 511.999;" xml:space="preserve">
<g>
	<g>
		<path d="M469.364,42.636c-56.847-56.847-149.347-56.849-206.196,0c-52.855,52.855-56.557,136.526-11.126,193.711l-37.361,37.36
			L179.874,238.9L0,418.774l93.225,93.226l179.875-179.875l-34.807-34.807l37.36-37.36c26.433,21,58.52,31.51,90.612,31.51
			c37.337,0,74.675-14.213,103.099-42.637C526.211,191.983,526.211,99.484,469.364,42.636z M93.225,464.776l-46.002-46.002
			l94.847-94.847l46.004,46.002L93.225,464.776z M211.685,346.317l-46.004-46.002l14.194-14.194l46.003,46.002L211.685,346.317z
			 M445.752,225.221c-21.917,21.917-50.697,32.874-79.487,32.872c-28.781-0.002-57.575-10.96-79.486-32.872
			c-43.829-43.829-43.829-115.145,0-158.974c43.829-43.828,115.143-43.83,158.974,0
			C489.581,110.076,489.581,181.391,445.752,225.221z"/>
	</g>
</g>
<g>
</g>
<g>
</g>
<g>
</g>
<g>
</g>
<g>
</g>
<g>
</g>
<g>
</g>
<g>
</g>
<g>
</g>
<g>
</g>
<g>
</g>
<g>
</g>
<g>
</g>
<g>
</g>
<g>
</g>
</svg>
