<?xml version="1.0" encoding="iso-8859-1"?>
<!-- Generator: Adobe Illustrator 19.0.0, SVG Export Plug-In . SVG Version: 6.00 Build 0)  -->
<svg version="1.1" id="Layer_1" xmlns="http://www.w3.org/2000/svg" xmlns:xlink="http://www.w3.org/1999/xlink" x="0px" y="0px"
	 viewBox="0 0 512 512" style="enable-background:new 0 0 512 512;" xml:space="preserve">
<g>
	<g>
		<path d="M479.556,322.119c-6.389-16.978-12.876-28.659-18.054-36.358c30.545-42.887,24.432-87.442,24.142-89.415l-2.103-14.261
			H384V128C384,57.421,326.579,0,256,0S128,57.421,128,128v54.085H28.458l-2.101,14.261c-0.29,1.973-6.404,46.527,24.141,89.415
			c-5.178,7.699-11.664,19.379-18.054,36.358C15.989,365.847,7.646,424.116,7.646,495.304V512h496.709v-16.696
			C504.354,424.116,496.011,365.847,479.556,322.119z M161.391,128c0-52.167,42.441-94.609,94.609-94.609
			S350.609,75.833,350.609,128v54.085H161.391V128z M128,215.476h256h68.74c-1.029,13.772-5.621,35.523-22.455,56.193
			c-24.818,30.475-67.916,48.922-128.236,54.952v-38.432h-92.1v38.432c-59.982-5.998-102.942-24.277-127.83-54.453
			c-17.167-20.817-21.826-42.8-22.861-56.692H128z M268.659,321.581v48.82h-25.317v-48.82H268.659z M41.212,478.61v-0.001
			c0.902-42.842,5.603-97.322,21.065-140.848c4.118-11.592,8.244-20.222,11.735-26.435c31.6,27.02,77.152,43.398,135.938,48.838
			v43.629h92.1v-43.628c58.83-5.444,104.407-21.842,136.011-48.899c11.68,20.775,30.77,69.419,32.737,167.344H41.212z"/>
	</g>
</g>
<g>
</g>
<g>
</g>
<g>
</g>
<g>
</g>
<g>
</g>
<g>
</g>
<g>
</g>
<g>
</g>
<g>
</g>
<g>
</g>
<g>
</g>
<g>
</g>
<g>
</g>
<g>
</g>
<g>
</g>
</svg>
