<?xml version="1.0" encoding="iso-8859-1"?>
<!-- Uploaded to: SVG Repo, www.svgrepo.com, Generator: SVG Repo Mixer Tools -->
<svg fill="#ffffff" height="800px" width="800px" version="1.1" id="Layer_1" xmlns="http://www.w3.org/2000/svg" xmlns:xlink="http://www.w3.org/1999/xlink" 
	 viewBox="0 0 511.999 511.999" xml:space="preserve">
<g>
	<g>
		<path d="M328.257,0c-101.09,0-183.334,82.244-183.334,183.334c0,44.557,15.984,85.447,42.511,117.253l-27.144,27.144
			c-24.541-14.881-57.021-11.746-78.201,9.434c-0.089,0.088-0.176,0.177-0.262,0.268l-62.939,65.833
			C-5.802,428.19-5.75,468.562,19.039,493.35c24.868,24.867,65.373,24.864,90.237,0c0.089-0.089,0.176-0.178,0.261-0.268
			l62.927-65.821c20.498-20.622,23.867-51.487,10.846-75.411l27.693-27.693c31.807,26.527,72.697,42.511,117.254,42.511
			c101.09,0,183.334-82.244,183.334-183.334S429.348,0,328.257,0z M148.755,403.832c-0.089,0.088-0.176,0.177-0.262,0.268
			l-62.906,65.799c-11.833,11.707-31.166,11.692-42.978-0.118c-11.659-11.659-11.648-31.404,0.022-43.119
			c0.081-0.081,0.161-0.162,0.24-0.247l62.905-65.798c11.891-11.766,31.135-11.724,42.978,0.117
			C160.665,372.646,160.665,391.921,148.755,403.832z M328.257,333.334c-82.71,0-150-67.29-150-150s67.29-150,150-150
			s150,67.29,150,150S410.968,333.334,328.257,333.334z"/>
	</g>
</g>
<g>
	<g>
		<path d="M328.257,66.667c-64.33,0-116.667,52.337-116.667,116.667s52.337,116.667,116.667,116.667s116.667-52.337,116.667-116.667
			S392.588,66.667,328.257,66.667z M328.257,266.667c-45.95,0-83.334-37.383-83.334-83.333S282.306,100,328.257,100
			c45.95,0,83.333,37.383,83.333,83.333S374.208,266.667,328.257,266.667z"/>
	</g>
</g>
</svg>