<svg id="Capa_1" enable-background="new 0 0 512 512" height="512" viewBox="0 0 512 512" width="512" xmlns="http://www.w3.org/2000/svg"><g><g><path d="m335.021 379.923c-4.142 0-7.5 3.357-7.5 7.5v87.077c0 12.406-10.093 22.5-22.5 22.5h-145.045c-4.142 0-7.5 3.357-7.5 7.5s3.358 7.5 7.5 7.5h145.045c20.678 0 37.5-16.822 37.5-37.5v-87.077c0-4.143-3.358-7.5-7.5-7.5z"/><path d="m192.971 416.688c23.325 0 42.301-18.979 42.301-42.307 0-23.325-18.976-42.301-42.301-42.301-23.328 0-42.306 18.976-42.306 42.301 0 23.329 18.979 42.307 42.306 42.307zm0-69.607c15.054 0 27.301 12.247 27.301 27.301 0 15.057-12.247 27.307-27.301 27.307-15.057 0-27.306-12.25-27.306-27.307 0-15.054 12.25-27.301 27.306-27.301z"/><path d="m95.441 417.155 11.728 20.321c3.053 5.263 9.285 7.817 15.156 6.212l16.793-4.6c7.369 6.127 15.801 11.002 24.748 14.31l4.404 16.818c1.544 5.896 6.88 10.015 12.976 10.015h23.446c6.087 0 11.423-4.111 12.979-10.013l4.401-16.82c8.951-3.307 17.384-8.183 24.75-14.31l16.795 4.6c5.877 1.612 12.11-.948 15.16-6.226l11.729-20.312c3.043-5.281 2.143-11.959-2.188-16.238l-12.374-12.234c.806-4.702 1.214-9.494 1.214-14.297 0-4.8-.408-9.592-1.214-14.296l12.378-12.235c4.33-4.289 5.227-10.967 2.181-16.239l-11.723-20.3c-3.046-5.285-9.281-7.85-15.161-6.237l-16.799 4.6c-7.372-6.129-15.803-11.004-24.748-14.309l-4.405-16.829c-1.553-5.891-6.889-10.004-12.976-10.004h-23.445c-6.098 0-11.433 4.12-12.973 10.015l-4.408 16.818c-8.941 3.305-17.372 8.18-24.747 14.31l-16.797-4.602c-5.874-1.605-12.105.954-15.162 6.234l-11.71 20.29c-3.064 5.281-2.167 11.969 2.177 16.258l12.37 12.231c-.808 4.721-1.216 9.512-1.216 14.295 0 4.786.408 9.578 1.216 14.295l-12.359 12.226c-4.351 4.286-5.253 10.973-2.196 16.253zm27.965-20.643c1.835-1.815 2.608-4.446 2.045-6.966-1.108-4.967-1.67-10.068-1.67-15.164 0-5.091.562-10.193 1.671-15.167.562-2.52-.212-5.15-2.047-6.965l-14.361-14.199 10.496-18.187 19.499 5.341c2.491.685 5.159.034 7.06-1.715 7.51-6.911 16.583-12.156 26.235-15.169 2.468-.77 4.366-2.757 5.021-5.258l5.119-19.531h20.996l5.112 19.529c.655 2.502 2.553 4.49 5.022 5.261 9.658 3.012 18.729 8.256 26.232 15.166 1.9 1.751 4.568 2.401 7.062 1.717l19.5-5.34 10.501 18.186-14.365 14.198c-1.838 1.816-2.612 4.452-2.046 6.974 1.108 4.944 1.669 10.044 1.669 15.159 0 5.12-.562 10.219-1.669 15.156-.566 2.521.207 5.157 2.044 6.975l14.367 14.205-10.498 18.181-19.503-5.341c-2.494-.686-5.163-.034-7.064 1.719-7.493 6.905-16.563 12.149-26.23 15.165-2.469.771-4.368 2.759-5.022 5.262l-5.11 19.528h-21l-5.114-19.53c-.655-2.501-2.552-4.488-5.021-5.259-9.662-3.016-18.733-8.261-26.233-15.168-1.902-1.752-4.57-2.401-7.062-1.717l-19.502 5.342-10.493-18.182z"/><path d="m457.52 158.401-27.09-4.329c-1.358-3.962-2.966-7.844-4.811-11.611l16.094-22.218c3.809-5.256 3.241-12.401-1.349-16.992l-21.807-21.806c-4.589-4.589-11.733-5.154-16.991-1.35l-22.216 16.095c-3.767-1.844-7.649-3.452-11.611-4.81l-4.33-27.091c-1.024-6.409-6.479-11.061-12.968-11.061h-7.921v-15.728c0-20.678-16.822-37.5-37.5-37.5h-224.1c-20.678 0-37.5 16.822-37.5 37.5v437c0 20.678 16.822 37.5 37.5 37.5h44.03c4.142 0 7.5-3.357 7.5-7.5s-3.358-7.5-7.5-7.5h-44.03c-12.407 0-22.5-10.094-22.5-22.5v-437c0-12.406 10.093-22.5 22.5-22.5h59.168l6.264 20.936c2.199 7.351 9.093 12.484 16.766 12.484h59.707c7.793 0 14.531-5.017 16.766-12.483l6.262-20.937h59.166c12.407 0 22.5 10.094 22.5 22.5v15.729h-7.917c-6.49 0-11.944 4.651-12.969 11.061l-4.33 27.091c-3.961 1.357-7.843 2.966-11.61 4.81l-22.22-16.096c-5.256-3.805-12.4-3.237-16.989 1.351l-21.807 21.806c-4.589 4.59-5.157 11.735-1.349 16.991l16.095 22.219c-1.844 3.767-3.452 7.649-4.81 11.611l-27.089 4.329c-6.41 1.023-11.062 6.478-11.062 12.969v30.839c0 6.491 4.652 11.945 11.061 12.969l27.09 4.33c1.358 3.962 2.966 7.844 4.81 11.61l-16.096 22.22c-3.806 5.256-3.238 12.401 1.35 16.99l21.805 21.804c4.589 4.593 11.736 5.159 16.992 1.352l22.218-16.095c3.767 1.844 7.649 3.452 11.611 4.811l4.33 27.09c1.024 6.409 6.479 11.061 12.968 11.061h7.917v32.04c0 4.143 3.358 7.5 7.5 7.5s7.5-3.357 7.5-7.5v-32.04h7.921c6.49 0 11.944-4.651 12.968-11.061l4.331-27.09c3.962-1.358 7.843-2.967 11.61-4.811l22.218 16.094c5.256 3.809 12.403 3.24 16.991-1.349l21.806-21.806c4.589-4.59 5.157-11.735 1.349-16.991l-16.095-22.219c1.844-3.767 3.453-7.649 4.811-11.61l27.09-4.33c6.409-1.023 11.061-6.478 11.061-12.969v-30.84c.002-6.491-4.65-11.945-11.059-12.969zm-232.301-126.765c-.319 1.067-1.282 1.784-2.396 1.784h-59.707c-1.096 0-2.081-.733-2.396-1.784l-4.976-16.636h74.453zm228.362 168.981-30.088 4.809c-2.868.459-5.212 2.53-6.021 5.319-1.747 6.032-4.173 11.89-7.211 17.408-1.4 2.544-1.207 5.666.497 8.017l17.875 24.677-19.555 19.555-24.677-17.876c-2.352-1.702-5.475-1.895-8.017-.496-5.518 3.038-11.375 5.465-17.408 7.212-2.789.809-4.861 3.153-5.319 6.021l-4.81 30.088h-27.654l-4.809-30.088c-.458-2.867-2.531-5.212-5.319-6.021-6.033-1.747-11.89-4.174-17.408-7.212-2.543-1.398-5.666-1.206-8.017.496l-24.676 17.876-19.555-19.555 17.875-24.677c1.703-2.351 1.896-5.473.497-8.017-3.037-5.517-5.464-11.374-7.212-17.408-.808-2.789-3.153-4.86-6.02-5.319l-30.088-4.809v-27.655l30.088-4.808c2.867-.458 5.212-2.53 6.021-5.319 1.748-6.034 4.174-11.892 7.211-17.409 1.4-2.544 1.207-5.666-.497-8.017l-17.875-24.677 19.555-19.555 24.676 17.876c2.352 1.702 5.475 1.896 8.017.496 5.519-3.038 11.375-5.465 17.407-7.211 2.789-.808 4.862-3.153 5.32-6.021l4.809-30.089h27.654l4.81 30.089c.458 2.867 2.531 5.213 5.32 6.021 6.031 1.746 11.888 4.173 17.408 7.211 2.542 1.398 5.665 1.205 8.017-.496l24.676-17.876 19.555 19.555-17.875 24.677c-1.703 2.351-1.896 5.473-.497 8.017 3.039 5.519 5.465 11.376 7.211 17.408.808 2.789 3.153 4.862 6.021 5.32l30.088 4.808z"/><path d="m400.871 179.29h-12.294c-3.661-26.262-26.237-46.549-53.482-46.586-.026 0-.05-.004-.076-.004-.031 0-.061.004-.092.005-8.492.014-16.638 1.954-24.211 5.769-3.699 1.864-5.187 6.374-3.323 10.073s6.374 5.187 10.073 3.323c3.217-1.621 6.581-2.76 10.053-3.437v76.713c-17.975-3.509-31.585-19.37-31.585-38.357 0-4.346.719-8.634 2.137-12.745 1.35-3.916-.729-8.185-4.645-9.535-3.917-1.35-8.185.729-9.536 4.645-1.14 3.306-1.943 6.697-2.425 10.136h-12.294c-4.142 0-7.5 3.357-7.5 7.5s3.358 7.5 7.5 7.5h12.294c3.659 26.246 26.211 46.524 53.435 46.584.04.001.079.006.119.006.039 0 .076-.005.115-.006 27.227-.056 49.784-20.336 53.443-46.584h12.294c4.142 0 7.5-3.357 7.5-7.5s-3.358-7.5-7.5-7.5zm-58.352 45.858v-76.716c17.977 3.508 31.589 19.37 31.589 38.359s-13.612 34.849-31.589 38.357z"/><path d="m202.293 106.47c0-15.042-12.238-27.28-27.281-27.28h-62.947c-15.042 0-27.281 12.238-27.281 27.28s12.238 27.28 27.281 27.28h62.947c15.043 0 27.281-12.238 27.281-27.28zm-102.508 0c0-6.771 5.509-12.28 12.281-12.28h62.947c6.771 0 12.281 5.509 12.281 12.28s-5.509 12.28-12.281 12.28h-62.947c-6.772 0-12.281-5.509-12.281-12.28z"/><path d="m142.068 157.29c-4.142 0-7.5 3.357-7.5 7.5s3.358 7.5 7.5 7.5h23.35c4.142 0 7.5-3.357 7.5-7.5s-3.358-7.5-7.5-7.5z"/><path d="m92.285 202.385h37.516c4.142 0 7.5-3.357 7.5-7.5s-3.358-7.5-7.5-7.5h-37.516c-4.142 0-7.5 3.357-7.5 7.5s3.358 7.5 7.5 7.5z"/><path d="m92.285 232.479h73.133c4.142 0 7.5-3.357 7.5-7.5s-3.358-7.5-7.5-7.5h-73.133c-4.142 0-7.5 3.357-7.5 7.5s3.358 7.5 7.5 7.5z"/><path d="m84.785 164.907c0 4.143 3.358 7.5 7.5 7.5s7.5-3.357 7.5-7.5v-.105c0-4.143-3.358-7.5-7.5-7.5s-7.5 3.357-7.5 7.5z"/><path d="m108.314 164.802v.105c0 4.143 3.358 7.5 7.5 7.5s7.5-3.357 7.5-7.5v-.105c0-4.143-3.358-7.5-7.5-7.5s-7.5 3.357-7.5 7.5z"/></g></g></svg>