<svg id="Layer_1" enable-background="new 0 0 512.002 512.002" height="512" viewBox="0 0 512.002 512.002" width="512" xmlns="http://www.w3.org/2000/svg"><g><g><path d="m511.855 277.891-14.254-143.702c-.78-7.866-4.584-14.958-10.711-19.971-6.081-4.974-13.707-7.283-21.467-6.499l-49.644 5.005s0 0-.001 0c-12.649 1.276-22.638 10.488-25.574 22.227l-12.735 1.284-37.536-22.426c-12.722-7.6-17.021-8.626-30.663-7.323l-53.272 5.088-53.265-5.088c-13.645-1.304-17.943-.276-30.663 7.323l-37.536 22.426-12.736-1.284c-2.937-11.739-12.926-20.951-25.576-22.226l-49.643-5.005c-7.767-.784-15.387 1.526-21.467 6.499-6.127 5.013-9.931 12.105-10.711 19.971l-14.254 143.701c-1.607 16.206 10.197 30.711 26.313 32.335l49.644 5.006c.992.1 1.98.149 2.965.149 6.721 0 13.2-2.311 18.503-6.649 3.439-2.814 6.146-6.283 7.997-10.177l3.036.306c-6.894 11.361-5.477 26.441 4.267 36.264 5.539 5.584 12.93 8.66 20.811 8.66 2.057 0 4.079-.209 6.045-.618 1.321 4.651 3.796 9.037 7.422 12.694 5.539 5.585 12.93 8.66 20.811 8.66 2.056 0 4.079-.209 6.044-.618 1.322 4.651 3.796 9.037 7.423 12.693 5.539 5.584 12.93 8.66 20.811 8.66 2.057 0 4.079-.209 6.045-.618 1.321 4.651 3.796 9.038 7.422 12.694 5.539 5.584 12.93 8.66 20.811 8.66s15.272-3.076 20.811-8.66l11.218-11.309c5.464 3.301 11.5 5.023 17.603 5.022 4.313 0 8.661-.855 12.858-2.606 7.795-3.253 13.809-9.072 17.238-16.215 8.584 2.691 17.348 1.663 24.973-3.22 6.496-4.16 11.209-10.605 13.426-17.645 12.405 1.08 24.121-5.017 30.688-13.543 8.897-11.552 8.581-26.093-.428-37.091l21.531-2.171c1.851 3.893 4.558 7.363 7.998 10.177 5.304 4.339 11.781 6.649 18.502 6.649.984 0 1.974-.05 2.965-.149l49.644-5.005c16.116-1.624 27.918-16.13 26.311-32.335zm-200.685-151.496c9.339-.892 9.34-.892 18.506 4.584l40.375 24.122c1.845 1.102 3.997 1.58 6.132 1.365l14.273-1.439 12.28 123.799-35.622 3.592-53.056-53.981c18.372-3.979 33.381-14.816 42.653-31.009 2.745-4.792 1.084-10.903-3.708-13.647-4.794-2.746-10.903-1.083-13.647 3.708-7.079 12.362-19.096 20.236-33.837 22.173-16.951 2.226-35.147-3.646-46.369-14.959-1.977-1.993-4.699-3.056-7.506-2.95-2.805.114-5.433 1.402-7.242 3.549l-12.572 14.924c-9.456 11.225-14.202 16.858-44.623 16.858-1.545 0-2.682-.432-3.118-1.184-.475-.819-.269-2.203.538-3.612 7.913-13.817 15.094-25.713 22.038-37.218 7.694-12.747 15.651-25.928 24.597-41.711 4.264-7.524 7.058-10.007 16.222-10.883l9.485-.906c.061-.006.122-.011.182-.017zm-177.488 197.391c-2.508 0-4.856-.975-6.611-2.744-3.646-3.676-3.646-9.888 0-13.564l13.711-13.824c1.755-1.77 4.103-2.745 6.611-2.745s4.855.975 6.611 2.745c3.646 3.676 3.646 9.887.001 13.563l-.001.001-6.855 6.912-6.855 6.912c-1.756 1.769-4.105 2.744-6.612 2.744zm34.278 20.736c-2.508 0-4.855-.975-6.611-2.744-3.646-3.676-3.646-9.888 0-13.564l6.855-6.912.039-.039 6.816-6.873c1.756-1.77 4.104-2.745 6.611-2.745 2.508 0 4.856.975 6.611 2.744 3.646 3.676 3.646 9.888 0 13.564l-6.855 6.912-6.856 6.912c-1.755 1.77-4.102 2.745-6.61 2.745zm34.278 20.736c-2.508 0-4.856-.975-6.611-2.744-3.646-3.676-3.646-9.887-.001-13.563l.001-.001 6.855-6.912 6.855-6.911c1.756-1.77 4.104-2.745 6.612-2.745s4.855.975 6.61 2.744c3.646 3.676 3.646 9.888 0 13.563l-6.855 6.912-6.855 6.911c-1.755 1.771-4.103 2.746-6.611 2.746zm54.601 4.167-13.712 13.825c-1.755 1.77-4.103 2.744-6.611 2.744s-4.855-.975-6.611-2.744c-3.646-3.676-3.646-9.888 0-13.564l6.855-6.912 6.855-6.911c1.756-1.77 4.104-2.745 6.612-2.745s4.856.975 6.611 2.744c3.647 3.675 3.647 9.887.001 13.563zm112.648-43.811c-3.188 4.141-10.855 8.6-18.902 3.914-3.484-2.027-7.844-1.766-11.06.664s-4.659 6.553-3.659 10.458c.957 3.741-1.531 9.014-5.435 11.513-4.22 2.705-9.162 1.795-14.688-2.691-3.041-2.471-7.246-2.937-10.758-1.192-3.51 1.746-5.676 5.381-5.541 9.298.226 6.555-4.245 10.78-8.142 12.407-2.132.89-7.004 2.208-12.385-1.035 2.044-9.491-.577-19.808-7.88-27.171-5.539-5.584-12.93-8.66-20.811-8.66-2.056 0-4.079.209-6.044.618-1.322-4.651-3.796-9.037-7.423-12.693-5.539-5.584-12.93-8.66-20.811-8.66-2.056 0-4.079.209-6.044.618-1.321-4.651-3.796-9.038-7.423-12.694-5.539-5.584-12.93-8.66-20.811-8.66-2.056 0-4.079.209-6.044.618-1.321-4.651-3.795-9.037-7.422-12.693-5.54-5.585-12.931-8.661-20.812-8.661s-15.271 3.076-20.811 8.661l-.904.912-16.411-1.655 1.7-17.133c.545-5.496-3.468-10.394-8.964-10.938-5.5-.548-10.394 3.468-10.938 8.964l-2.685 27.069c-.252 2.543-1.486 4.839-3.473 6.465-1.941 1.588-4.357 2.327-6.797 2.08l-49.644-5.006c-5.161-.52-8.937-5.213-8.416-10.461l14.254-143.702c.252-2.543 1.486-4.839 3.473-6.465 1.94-1.587 4.357-2.328 6.796-2.08l49.644 5.005c5.162.521 8.938 5.214 8.417 10.461l-2.686 27.07c-.545 5.496 3.468 10.393 8.964 10.938 5.495.542 10.394-3.468 10.938-8.964l1.697-17.103 14.273 1.439c.334.034.669.05 1.003.05 1.8 0 3.573-.486 5.129-1.416l40.375-24.123c9.165-5.475 9.165-5.475 18.505-4.583l16.52 1.578c-1.231 1.734-2.385 3.575-3.491 5.526-8.811 15.544-16.695 28.605-24.319 41.237-7.003 11.602-14.244 23.598-22.271 37.615-4.404 7.692-4.586 16.508-.485 23.582 4.048 6.984 11.683 11.153 20.421 11.153 35.805 0 46.191-7.677 59.918-23.972l6.108-7.251c9.706 7.025 21.394 11.653 33.632 13.439l81.524 82.945c5.32 5.318 3.533 10.203 1.099 13.365zm114.05-35.286-49.644 5.005c-2.448.247-4.856-.493-6.797-2.08-1.987-1.626-3.221-3.922-3.473-6.465l-14.253-143.702c-.521-5.248 3.255-9.941 8.417-10.461h-.001l49.645-5.005c2.442-.25 4.855.492 6.795 2.08 1.987 1.626 3.222 3.922 3.474 6.465l14.254 143.702c.519 5.247-3.256 9.94-8.417 10.461z"/><path d="m53.933 247.813c-5.523 0-10 4.477-10 10s4.477 10 10 10h.007c5.523 0 9.997-4.477 9.997-10s-4.481-10-10.004-10z"/><path d="m447.432 148.813c-5.522 0-10 4.477-10 10s4.478 10 10 10h.008c5.522 0 9.996-4.477 9.996-10s-4.481-10-10.004-10z"/><path d="m105.457 205.924h-.007c-5.523 0-9.996 4.477-9.996 10s4.48 10 10.003 10 10-4.477 10-10-4.477-10-10-10z"/></g></g></svg>