<svg id="Layer_1" enable-background="new 0 0 512.002 512.002" height="512" viewBox="0 0 512.002 512.002" width="512" xmlns="http://www.w3.org/2000/svg"><g><g><path d="m402.001 272.422v-34.421c0-13.028-8.35-24.138-19.978-28.272l.287-111.9c.007-2.667-1.051-5.225-2.94-7.108l-88.074-87.803c-1.875-1.869-4.413-2.918-7.06-2.918h-114.234c-5.523 0-10 4.477-10 10s4.477 10 10 10h104.233v59.728c0 15.481 12.595 28.076 28.076 28.076h59.973l-.257 100.199h-202.027v-10.003c0-3.505-.61-6.87-1.72-10h163.914c5.523 0 10-4.477 10-10s-4.477-10-10-10h-192.194-89.997l-.003-138c0-5.514 4.486-10 10-10h30.002c5.523 0 10-4.477 10-10s-4.477-10-10-10h-30.002c-16.542 0-30 13.458-30 30l.002 139.72c-11.64 4.127-20.002 15.243-20.002 28.28v260c0 16.542 13.458 30 30 30h290.079c20.056 15.064 44.965 24.001 71.923 24.001 66.168 0 120-53.832 120-120 0-62.8-48.494-114.48-110.001-119.579zm-107.765-192.694v-45.639l53.88 53.714h-45.804c-4.454 0-8.076-3.622-8.076-8.075zm-274.236 378.272v-260c0-5.514 4.486-10 10-10h100c5.514 0 10 4.486 10 10v20.002c0 5.523 4.477 10 10 10h222.002c5.514 0 10 4.486 10 10v34.421c-61.506 5.099-110 56.779-110 119.58 0 28.816 10.212 55.289 27.204 75.999h-269.206c-5.514-.002-10-4.487-10-10.002zm314.807 15.982c4.355-13.667 13.588-25.471 25.86-33.057 8.58 6.921 19.479 11.077 31.336 11.077s22.757-4.157 31.337-11.079c12.27 7.585 21.502 19.391 25.857 33.06-16.219 11.349-35.941 18.019-57.194 18.019-21.255 0-40.978-6.67-57.196-18.02zm87.194-71.98c0 16.542-13.458 30-30 30s-30-13.458-30-30v-20.001c0-16.542 13.458-30 30-30 16.542 0 30 13.458 30 30zm43.262 57.987c-6.169-13.981-16.291-26.057-29.088-34.596 3.714-6.985 5.827-14.944 5.827-23.391v-20.001c0-27.57-22.43-50-50-50s-50 22.43-50 50v20.001c0 8.453 2.117 16.419 5.836 23.407-12.798 8.54-22.925 20.602-29.093 34.582-16.583-17.856-26.742-41.757-26.742-67.99 0-55.14 44.86-100 100-100s100 44.86 100 100c-.001 26.232-10.159 50.133-26.74 67.988z"/><path d="m196.099 107.803c5.523 0 10-4.477 10-10s-4.477-10-10-10h-116.097c-5.523 0-10 4.477-10 10s4.477 10 10 10z"/><path d="m196.099 47.802h-116.097c-5.523 0-10 4.477-10 10s4.477 10 10 10h116.096c5.523 0 10-4.477 10-10s-4.476-10-9.999-10z"/><path d="m80.003 147.805h242.191c5.523 0 10-4.477 10-10s-4.477-10-10-10h-242.191c-5.523 0-10 4.477-10 10s4.477 10 10 10z"/><path d="m125.006 20c5.523 0 10-4.477 10-10s-4.477-10-10-10h-.007c-5.523 0-9.996 4.477-9.996 10s4.48 10 10.003 10z"/></g></g></svg>